<svg xmlns="http://www.w3.org/2000/svg" viewBox="0 0 32 32" fill="none">
  <!-- Wizard Hat -->
  <path d="M8 12C8 8.68629 10.6863 6 14 6H18C21.3137 6 24 8.68629 24 12V14C24 16.2091 22.2091 18 20 18H12C9.79086 18 8 16.2091 8 14V12Z" fill="#6366F1"/>
  
  <!-- Hat Brim -->
  <path d="M6 14C6 12.8954 6.89543 12 8 12H24C25.1046 12 26 12.8954 26 14V16C26 17.1046 25.1046 18 24 18H8C6.89543 18 6 17.1046 6 16V14Z" fill="#4F46E5"/>
  
  <!-- Wizard Face -->
  <circle cx="16" cy="22" r="6" fill="#FBBF24"/>
  
  <!-- Eyes -->
  <circle cx="14" cy="20" r="1.5" fill="#1F2937"/>
  <circle cx="18" cy="20" r="1.5" fill="#1F2937"/>
  
  <!-- Nose -->
  <path d="M16 22L15 24H17L16 22Z" fill="#1F2937"/>
  
  <!-- Beard -->
  <path d="M12 24C12 24 13 26 16 26C19 26 20 24 20 24" stroke="#1F2937" stroke-width="1" fill="none"/>
  
  <!-- Magic Sparkles -->
  <circle cx="26" cy="8" r="1" fill="#F59E0B"/>
  <circle cx="6" cy="8" r="1" fill="#F59E0B"/>
  <circle cx="28" cy="12" r="0.8" fill="#F59E0B"/>
  <circle cx="4" cy="12" r="0.8" fill="#F59E0B"/>
  
  <!-- Staff -->
  <rect x="28" y="16" width="2" height="8" fill="#8B5CF6"/>
  <circle cx="29" cy="26" r="1.5" fill="#7C3AED"/>
</svg>