<svg xmlns="http://www.w3.org/2000/svg" fill="none" viewBox="0 0 24 24" id="Twilio--Streamline-Svg-Logos" height="24" width="24">
  <desc>
    Twilio Streamline Icon: https://streamlinehq.com
  </desc>
  <path fill="#f12e45" d="M3.7849 8.4651c1.95125 0 3.5349 1.583625 3.5349 3.534875 0 1.951275 -1.58365 3.5349 -3.5349 3.5349C1.833635 15.534875 0.25 13.95125 0.25 11.999975c0 -1.95125 1.583635 -3.534875 3.5349 -3.534875Zm0 0.9332c-1.44224 0 -2.6016875 1.15945 -2.6016875 2.601675 0 1.44225 1.1594475 2.6017 2.6016875 2.6017 1.442225 0 2.601675 -1.15945 2.601675 -2.6017 0 -1.442225 -1.15945 -2.601675 -2.601675 -2.601675Zm18.169375 1.456375c1.046325 0 1.795725 0.76355 1.795725 1.668475v0.01415c0 0.904925 -0.7494 1.6826 -1.809875 1.6826 -1.046325 0 -1.795725 -0.763525 -1.795725 -1.668475v-0.014125c0 -0.90495 0.7494 -1.682625 1.809875 -1.682625Zm-12.1742 -0.989775c0.042425 -0.014125 0.08485 0.028275 0.08485 0.056575v1.01805h1.880575c0.0424 0 0.070675 0.028275 0.084825 0.05655l0.155525 0.579725 0.1414 0.579725 0.01415 0.028275 0.014125 -0.05655 0.3535 -1.1736c0.01415 -0.028275 0.05655 -0.05655 0.08485 -0.05655h0.9332c0.042425 0 0.0707 0.028275 0.08485 0.05655l0.367625 1.258425 0.014125 -0.05655 0.311075 -1.1736c0.01415 -0.028275 0.05655 -0.05655 0.08485 -0.05655h2.403725c0.028275 0 0.05655 0.028275 0.05655 0.0707V14.0785c0 0.028275 -0.028275 0.056575 -0.05655 0.056575h-1.201875c-0.028275 0 -0.05655 -0.0283 -0.05655 -0.056575V11.1092L14.629975 14.0785c-0.01415 0.028275 -0.056575 0.056575 -0.08485 0.056575h-0.989775c-0.042425 0 -0.0707 -0.0283 -0.084825 -0.056575l-0.19795 -0.622125 -0.2121 -0.6787 -0.4242 1.314975c-0.014125 0.028275 -0.05655 0.05655 -0.084825 0.05655h-0.989775c-0.042425 0 -0.0707 -0.028275 -0.08485 -0.05655l-0.890775 -2.955175v0.763525c0 0.0283 -0.0283 0.056575 -0.056575 0.056575h-0.6787v0.80595c0 0.240375 0.113125 0.3252 0.325225 0.3252 0.1131 0 0.212075 -0.014125 0.33935 -0.0707 0.028275 0 0.0707 0.01415 0.0707 0.056575v0.9332c-0.2121 0.113125 -0.523175 0.183825 -0.848375 0.183825 -0.777675 0 -1.201875 -0.367625 -1.201875 -1.1453v-1.1029h-0.311075c-0.028275 0 -0.05655 -0.028275 -0.05655 -0.05655v-0.90495c0 -0.028275 0.028275 -0.05655 0.05655 -0.05655h0.311075v-0.636275c0 -0.028275 0.01415 -0.042425 0.05655 -0.056575l1.187725 -0.367625Zm8.596875 -0.014125c0.028275 0 0.056575 0.028275 0.056575 0.05655V14.0785c0 0.028275 -0.0283 0.056575 -0.056575 0.056575h-1.20185c-0.0283 0 -0.056575 -0.0283 -0.056575 -0.056575V9.907325c0 -0.028275 0.028275 -0.05655 0.056575 -0.05655h1.20185Zm1.58365 1.0746c0.028275 0 0.05655 0.028275 0.05655 0.0707V14.0785c0 0.028275 -0.028275 0.056575 -0.05655 0.056575h-1.201875c-0.028275 0 -0.05655 -0.0283 -0.05655 -0.056575V10.981925c0 -0.028275 0.028275 -0.05655 0.05655 -0.05655h1.201875Zm-15.29905 1.216c0.406075 0 0.73525 0.3292 0.73525 0.735275 0 0.40605 -0.329175 0.73525 -0.73525 0.73525 -0.406075 0 -0.73525 -0.3292 -0.73525 -0.73525 0 -0.406075 0.329175 -0.735275 0.73525 -0.735275Zm-1.7533 0c0.406075 0 0.73525 0.3292 0.73525 0.735275 0 0.40605 -0.329175 0.73525 -0.73525 0.73525 -0.406075 0 -0.735265 -0.3292 -0.735265 -0.73525 0 -0.406075 0.32919 -0.735275 0.735265 -0.735275Zm19.031875 -0.1838c-0.296925 0 -0.509025 0.240375 -0.509025 0.551425v0.01415c0 0.311075 0.22625 0.565575 0.523175 0.565575 0.296925 0 0.509025 -0.240375 0.509025 -0.551425 0 -0.325225 -0.226225 -0.579725 -0.523175 -0.579725Zm-17.278575 -1.5695c0.406075 0 0.73525 0.329175 0.73525 0.73525 0 0.406075 -0.329175 0.735275 -0.73525 0.735275 -0.406075 0 -0.73525 -0.3292 -0.73525 -0.735275s0.329175 -0.73525 0.73525 -0.73525Zm-1.7533 0c0.406075 0 0.73525 0.329175 0.73525 0.73525 0 0.406075 -0.329175 0.735275 -0.73525 0.735275 -0.406075 0 -0.735265 -0.3292 -0.735265 -0.735275s0.32919 -0.73525 0.735265 -0.73525Zm13.8992 -0.5373c0.042425 0 0.0707 0.028275 0.056575 0.05655v0.721125c0 0.028275 -0.028275 0.05655 -0.056575 0.05655h-1.244275c-0.028275 0 -0.05655 -0.028275 -0.05655 -0.05655v-0.721125c0 -0.028275 0.028275 -0.05655 0.05655 -0.05655h1.244275Zm3.167275 0c0.042425 0 0.0707 0.028275 0.056575 0.05655v0.721125c0 0.028275 -0.0283 0.05655 -0.056575 0.05655h-1.244275c-0.028275 0 -0.056575 -0.028275 -0.056575 -0.05655v-0.721125c0 -0.028275 0.0283 -0.05655 0.056575 -0.05655h1.244275Z" stroke-width="0.25"></path>
</svg>